<svg xmlns="http://www.w3.org/2000/svg" viewBox="0 0 160 160" role="img" aria-label="Ember Respin crest">
  <defs>
    <radialGradient id="ember-core" cx="50%" cy="42%" r="58%">
      <stop offset="0" stop-color="#fff2c1"/>
      <stop offset="0.42" stop-color="#ffb260"/>
      <stop offset="1" stop-color="#7e2418"/>
    </radialGradient>
    <linearGradient id="ember-ring" x1="0" y1="0" x2="1" y2="1">
      <stop offset="0" stop-color="#ffe4b2"/>
      <stop offset="0.5" stop-color="#ffb35a"/>
      <stop offset="1" stop-color="#cf6230"/>
    </linearGradient>
  </defs>
  <circle cx="80" cy="80" r="72" fill="#1a1017" stroke="url(#ember-ring)" stroke-width="6"/>
  <circle cx="80" cy="80" r="58" fill="url(#ember-core)" fill-opacity="0.18" stroke="#ffd8a0" stroke-opacity="0.36" stroke-width="2"/>
  <path d="M80 34 C100 54 103 72 97 86 C92 98 80 107 80 122 C80 107 68 98 63 86 C57 72 60 54 80 34 Z" fill="url(#ember-ring)"/>
  <path d="M80 54 C90 64 91 75 88 83 C85 90 80 96 80 104 C80 96 75 90 72 83 C69 75 70 64 80 54 Z" fill="#fff0cd" fill-opacity="0.85"/>
  <path d="M42 96 L58 86 L68 102 L54 116 Z" fill="#ffda9f" fill-opacity="0.82"/>
  <path d="M118 96 L102 86 L92 102 L106 116 Z" fill="#ffda9f" fill-opacity="0.82"/>
  <circle cx="54" cy="56" r="6" fill="#ffd78f" fill-opacity="0.88"/>
  <circle cx="106" cy="56" r="6" fill="#ffd78f" fill-opacity="0.88"/>
</svg>